<svg width="56" height="56" viewBox="0 0 56 56" fill="none" xmlns="http://www.w3.org/2000/svg">
<path d="M54.7973 26.6261L30.5796 3.2876L28.0001 0.799805L8.90755 19.2155L1.20276 26.6261C0.399252 27.4001 0.399252 28.6501 1.20276 29.4241L16.6124 44.3582L28.0001 55.2998L47.0926 36.8842L47.2886 36.6933L54.7973 29.4241C55.6008 28.6501 55.6008 27.4001 54.7973 26.6261ZM28.0001 35.8142L20.2953 28.3501L28.0001 20.886L35.7048 28.3501L28.0001 35.8142Z" fill="#2684FF"/>
<path d="M28.0001 20.886C22.7514 15.8195 22.7124 7.6835 27.9219 2.5835L8.90747 21.0445L20.2953 32.0325L28.0001 20.886Z" fill="url(#paint0_linear_503_15012)"/>
<path d="M35.7049 28.3501L28.0001 35.8142C33.3269 40.9577 33.3269 49.1717 28.0001 54.3152L47.0927 35.8542L35.7049 28.3501Z" fill="url(#paint1_linear_503_15012)"/>
<defs>
<linearGradient id="paint0_linear_503_15012" x1="26.6435" y1="12.5895" x2="11.5585" y2="19.9995" gradientUnits="userSpaceOnUse">
<stop offset="0.18" stop-color="#0052CC"/>
<stop offset="1" stop-color="#2684FF"/>
</linearGradient>
<linearGradient id="paint1_linear_503_15012" x1="29.4001" y1="44.1697" x2="44.4411" y2="36.7877" gradientUnits="userSpaceOnUse">
<stop offset="0.18" stop-color="#0052CC"/>
<stop offset="1" stop-color="#2684FF"/>
</linearGradient>
</defs>
</svg>