<svg width="54" height="54" viewBox="0 0 54 54" fill="none" xmlns="http://www.w3.org/2000/svg">
<path d="M11.2496 33.7495C11.2496 36.5115 9.01163 38.7495 6.24963 38.7495C3.48763 38.7495 1.24963 36.5115 1.24963 33.7495C1.24963 30.9875 3.48763 28.7495 6.24963 28.7495H11.2496V33.7495Z" fill="#E01E5A"/>
<path d="M13.9996 33.7495C13.9996 30.9875 16.2376 28.7495 18.9996 28.7495C21.7616 28.7495 23.9996 30.9875 23.9996 33.7495V46.4995C23.9996 49.2615 21.7616 51.4995 18.9996 51.4995C16.2376 51.4995 13.9996 49.2615 13.9996 46.4995V33.7495Z" fill="#E01E5A"/>
<path d="M18.9996 11.2496C16.2376 11.2496 13.9996 9.01163 13.9996 6.24963C13.9996 3.48763 16.2376 1.24963 18.9996 1.24963C21.7616 1.24963 23.9996 3.48763 23.9996 6.24963V11.2496H18.9996Z" fill="#36C5F0"/>
<path d="M18.9996 13.9996C21.7616 13.9996 23.9996 16.2376 23.9996 18.9996C23.9996 21.7616 21.7616 23.9996 18.9996 23.9996H6.24963C3.48763 23.9996 1.24963 21.7616 1.24963 18.9996C1.24963 16.2376 3.48763 13.9996 6.24963 13.9996H18.9996Z" fill="#36C5F0"/>
<path d="M41.4995 18.9996C41.4995 16.2376 43.7375 13.9996 46.4995 13.9996C49.2615 13.9996 51.4995 16.2376 51.4995 18.9996C51.4995 21.7616 49.2615 23.9996 46.4995 23.9996H41.4995V18.9996Z" fill="#2EB67D"/>
<path d="M38.7495 18.9996C38.7495 21.7616 36.5115 23.9996 33.7495 23.9996C30.9875 23.9996 28.7495 21.7616 28.7495 18.9996V6.24963C28.7495 3.48763 30.9875 1.24963 33.7495 1.24963C36.5115 1.24963 38.7495 3.48763 38.7495 6.24963V18.9996Z" fill="#2EB67D"/>
<path d="M33.7495 41.4995C36.5115 41.4995 38.7495 43.7375 38.7495 46.4995C38.7495 49.2615 36.5115 51.4995 33.7495 51.4995C30.9875 51.4995 28.7495 49.2615 28.7495 46.4995V41.4995H33.7495Z" fill="#ECB22E"/>
<path d="M33.7495 38.7495C30.9875 38.7495 28.7495 36.5115 28.7495 33.7495C28.7495 30.9875 30.9875 28.7495 33.7495 28.7495H46.4995C49.2615 28.7495 51.4995 30.9875 51.4995 33.7495C51.4995 36.5115 49.2615 38.7495 46.4995 38.7495H33.7495Z" fill="#ECB22E"/>
</svg>